<?xml version="1.0" encoding="UTF-8"?>
<svg xmlns="http://www.w3.org/2000/svg" aria-hidden="true" style="position: absolute; width: 0; height: 0; overflow: hidden;">
  <defs>
    <!-- Outlined thumbs-up -->
    <symbol id="thumb-up-outline" viewBox="0 0 24 24">
      <path d="M2 21h4V9H2v12Zm19.77-9.03A2 2 0 0 0 20 10h-5.31l.76-3.65.02-.2a1 1 0 0 0-.29-.7L14 4l-6 6v9h9a2 2 0 0 0 1.94-1.52l1.77-7.51a2 2 0 0 0-.94-2.0Z"
            fill="none" stroke="currentColor" stroke-width="1.8" stroke-linecap="round" stroke-linejoin="round" />
    </symbol>

    <!-- Outlined thumbs-down (flipped up symbol) -->
    <symbol id="thumb-down-outline" viewBox="0 0 24 24">
      <g transform="scale(1,-1) translate(0,-24)">
        <path d="M2 21h4V9H2v12Zm19.77-9.03A2 2 0 0 0 20 10h-5.31l.76-3.65.02-.2a1 1 0 0 0-.29-.7L14 4l-6 6v9h9a2 2 0 0 0 1.94-1.52l1.77-7.51a2 2 0 0 0-.94-2.0Z"
              fill="none" stroke="currentColor" stroke-width="1.8" stroke-linecap="round" stroke-linejoin="round" />
      </g>
    </symbol>

    <!-- Right arrow -->
    <symbol id="arrow-right" viewBox="0 0 24 24">
      <path d="M10 6l6 6-6 6-1.41-1.41L12.17 12 8.59 8.41 10 6z" fill="currentColor" />
    </symbol>
  </defs>
</svg>
